<svg width="206" height="69" viewBox="0 0 206 69" fill="none" xmlns="http://www.w3.org/2000/svg">
<path d="M62.1032 33.6298H57.1596C56.5586 33.6298 56.0079 33.1416 55.9042 32.543C53.5841 19.1847 42.0339 9 28.1681 9C12.6361 9 0 21.7764 0 37.481C0 53.1858 8.88023 69 24.4122 69C25.9149 69 56.7115 49.2534 56.7115 47.7342C56.7115 47.7342 51.8638 48.1139 50.3611 48.1139C18.0275 59.8861 5.44142 50.152 5.44142 37.481C5.44142 24.8102 15.6361 14.5018 28.1677 14.5018C39.0248 14.5018 48.1226 22.2415 50.3611 32.5494C50.4899 33.1429 50.0815 33.6297 49.4808 33.6297H45.1271C44.526 33.6297 44.3472 34.0111 44.7274 34.4817L52.9266 44.625C53.307 45.0956 53.9233 45.0956 54.304 44.625L62.5031 34.4817C62.8833 34.0112 62.7042 33.6298 62.1032 33.6298Z" fill="#50A954"/>
<path d="M77.174 43.1918C76.317 43.1918 75.55 42.9716 74.8729 42.5312C74.1958 42.0909 73.6607 41.4517 73.2678 40.6136C72.8748 39.7756 72.6783 38.7576 72.6783 37.5597C72.6783 36.3475 72.8771 35.3248 73.2749 34.4915C73.6773 33.6534 74.2195 33.0213 74.9013 32.5952C75.5831 32.1643 76.343 31.9489 77.1811 31.9489C77.8203 31.9489 78.3459 32.0578 78.7578 32.2756C79.1697 32.4886 79.4964 32.7467 79.7379 33.0497C79.9794 33.348 80.1664 33.6297 80.299 33.8949H80.4055V28.4545H82.9837V43H80.4553V41.2812H80.299C80.1664 41.5464 79.9747 41.8281 79.7237 42.1264C79.4728 42.42 79.1413 42.6709 78.7294 42.8793C78.3175 43.0876 77.799 43.1918 77.174 43.1918ZM77.8913 41.0824C78.4358 41.0824 78.8999 40.9356 79.2834 40.642C79.6669 40.3437 79.9581 39.9295 80.157 39.3991C80.3558 38.8688 80.4553 38.2509 80.4553 37.5455C80.4553 36.84 80.3558 36.2268 80.157 35.706C79.9628 35.1851 79.674 34.7803 79.2905 34.4915C78.9117 34.2027 78.4453 34.0582 77.8913 34.0582C77.3184 34.0582 76.8402 34.2074 76.4567 34.5057C76.0732 34.804 75.7843 35.2159 75.5902 35.7415C75.3961 36.267 75.299 36.8684 75.299 37.5455C75.299 38.2273 75.3961 38.8357 75.5902 39.3707C75.7891 39.901 76.0803 40.3201 76.4638 40.6278C76.852 40.9309 77.3279 41.0824 77.8913 41.0824ZM90.5529 43.2131C89.4592 43.2131 88.5146 42.9858 87.7191 42.5312C86.9284 42.072 86.32 41.4233 85.8938 40.5852C85.4677 39.7424 85.2546 38.7505 85.2546 37.6094C85.2546 36.4872 85.4677 35.5024 85.8938 34.6548C86.3247 33.8026 86.926 33.1397 87.6978 32.6662C88.4696 32.188 89.3763 31.9489 90.418 31.9489C91.0903 31.9489 91.7248 32.0578 92.3214 32.2756C92.9227 32.4886 93.453 32.8201 93.9123 33.2699C94.3763 33.7197 94.7409 34.2926 95.006 34.9886C95.2712 35.6799 95.4038 36.5038 95.4038 37.4602V38.2486H86.462V36.5156H92.9393C92.9345 36.0232 92.828 35.5852 92.6197 35.2017C92.4113 34.8134 92.1201 34.508 91.7461 34.2855C91.3768 34.063 90.9459 33.9517 90.4535 33.9517C89.9279 33.9517 89.4663 34.0795 89.0685 34.3352C88.6708 34.5862 88.3607 34.9176 88.1381 35.3295C87.9203 35.7367 87.8091 36.1842 87.8043 36.6719V38.1847C87.8043 38.8191 87.9203 39.3636 88.1523 39.8182C88.3844 40.268 88.7087 40.6136 89.1254 40.8551C89.542 41.0919 90.0297 41.2102 90.5884 41.2102C90.9625 41.2102 91.301 41.1581 91.604 41.054C91.9071 40.9451 92.1699 40.7865 92.3924 40.5781C92.6149 40.3698 92.783 40.1117 92.8967 39.804L95.2972 40.0739C95.1457 40.7083 94.8569 41.2623 94.4308 41.7358C94.0094 42.2045 93.4696 42.5691 92.8114 42.8295C92.1533 43.0852 91.4004 43.2131 90.5529 43.2131ZM97.5788 43V32.0909H100.15V43H97.5788ZM98.8714 30.5426C98.4643 30.5426 98.1139 30.4077 97.8203 30.1378C97.5268 29.8632 97.38 29.5341 97.38 29.1506C97.38 28.7623 97.5268 28.4332 97.8203 28.1634C98.1139 27.8887 98.4643 27.7514 98.8714 27.7514C99.2834 27.7514 99.6338 27.8887 99.9226 28.1634C100.216 28.4332 100.363 28.7623 100.363 29.1506C100.363 29.5341 100.216 29.8632 99.9226 30.1378C99.6338 30.4077 99.2834 30.5426 98.8714 30.5426ZM105.365 36.608V43H102.794V32.0909H105.251V33.9446H105.379C105.63 33.3338 106.03 32.8485 106.579 32.4886C107.133 32.1288 107.817 31.9489 108.632 31.9489C109.385 31.9489 110.04 32.1098 110.599 32.4318C111.163 32.7538 111.598 33.2202 111.906 33.831C112.218 34.4418 112.372 35.1828 112.368 36.054V43H109.797V36.4517C109.797 35.7225 109.607 35.152 109.228 34.7401C108.854 34.3281 108.336 34.1222 107.673 34.1222C107.223 34.1222 106.823 34.2216 106.473 34.4205C106.127 34.6146 105.855 34.8963 105.656 35.2656C105.462 35.6349 105.365 36.0824 105.365 36.608ZM120.056 43V28.4545H125.51C126.628 28.4545 127.565 28.6629 128.323 29.0795C129.085 29.4962 129.66 30.0691 130.049 30.7983C130.442 31.5227 130.638 32.3466 130.638 33.2699C130.638 34.2027 130.442 35.0312 130.049 35.7557C129.656 36.4801 129.076 37.0507 128.309 37.4673C127.542 37.8793 126.597 38.0852 125.475 38.0852H121.86V35.919H125.12C125.773 35.919 126.308 35.8054 126.725 35.5781C127.141 35.3509 127.449 35.0384 127.648 34.6406C127.852 34.2429 127.953 33.786 127.953 33.2699C127.953 32.7538 127.852 32.2992 127.648 31.9062C127.449 31.5133 127.139 31.2079 126.718 30.9901C126.301 30.7675 125.764 30.6562 125.105 30.6562H122.691V43H120.056ZM135.757 43.2202C135.066 43.2202 134.443 43.0971 133.889 42.8509C133.34 42.5999 132.904 42.2306 132.582 41.7429C132.265 41.2552 132.107 40.6539 132.107 39.9389C132.107 39.3234 132.22 38.8144 132.447 38.4119C132.675 38.0095 132.985 37.6875 133.378 37.446C133.771 37.2045 134.214 37.0223 134.706 36.8991C135.203 36.7713 135.717 36.679 136.247 36.6222C136.886 36.5559 137.405 36.4967 137.803 36.4446C138.2 36.3878 138.489 36.3026 138.669 36.1889C138.854 36.0705 138.946 35.8883 138.946 35.642V35.5994C138.946 35.0644 138.787 34.6501 138.47 34.3565C138.153 34.063 137.696 33.9162 137.099 33.9162C136.47 33.9162 135.97 34.0535 135.601 34.3281C135.236 34.6027 134.99 34.9271 134.862 35.3011L132.462 34.9602C132.651 34.2973 132.964 33.7434 133.399 33.2983C133.835 32.8485 134.367 32.5123 134.997 32.2898C135.627 32.0625 136.323 31.9489 137.085 31.9489C137.611 31.9489 138.134 32.0104 138.655 32.1335C139.176 32.2566 139.652 32.4602 140.082 32.7443C140.513 33.0237 140.859 33.4048 141.119 33.8878C141.384 34.3707 141.517 34.9744 141.517 35.6989V43H139.045V41.5014H138.96C138.804 41.8045 138.584 42.0885 138.3 42.3537C138.02 42.6141 137.668 42.8248 137.241 42.9858C136.82 43.142 136.325 43.2202 135.757 43.2202ZM136.425 41.331C136.941 41.331 137.388 41.2292 137.767 41.0256C138.146 40.8172 138.437 40.5426 138.641 40.2017C138.849 39.8608 138.953 39.4891 138.953 39.0866V37.8011C138.873 37.8674 138.735 37.929 138.541 37.9858C138.352 38.0426 138.139 38.0923 137.902 38.1349C137.665 38.1776 137.431 38.2154 137.199 38.2486C136.967 38.2817 136.766 38.3101 136.595 38.3338C136.212 38.3859 135.868 38.4711 135.565 38.5895C135.262 38.7079 135.023 38.8736 134.848 39.0866C134.673 39.295 134.585 39.5649 134.585 39.8963C134.585 40.3698 134.758 40.7273 135.104 40.9688C135.449 41.2102 135.89 41.331 136.425 41.331ZM144.102 43V32.0909H146.595V33.9091H146.709C146.908 33.2794 147.249 32.794 147.732 32.4531C148.219 32.1075 148.776 31.9347 149.401 31.9347C149.543 31.9347 149.701 31.9418 149.876 31.956C150.056 31.9654 150.205 31.982 150.324 32.0057V34.3707C150.215 34.3329 150.042 34.2997 149.805 34.2713C149.573 34.2382 149.348 34.2216 149.131 34.2216C148.662 34.2216 148.241 34.3234 147.866 34.527C147.497 34.7259 147.206 35.0028 146.993 35.358C146.78 35.7131 146.673 36.1226 146.673 36.5866V43H144.102ZM158.065 32.0909V34.0795H151.794V32.0909H158.065ZM153.342 29.4773H155.913V39.7188C155.913 40.0644 155.965 40.3295 156.07 40.5142C156.179 40.6941 156.321 40.8172 156.496 40.8835C156.671 40.9498 156.865 40.983 157.078 40.983C157.239 40.983 157.386 40.9711 157.518 40.9474C157.656 40.9238 157.76 40.9025 157.831 40.8835L158.264 42.8935C158.127 42.9408 157.93 42.9929 157.675 43.0497C157.424 43.1065 157.116 43.1397 156.751 43.1491C156.107 43.1681 155.527 43.071 155.011 42.858C154.495 42.6402 154.086 42.304 153.783 41.8494C153.484 41.3949 153.338 40.8267 153.342 40.1449V29.4773ZM162.787 36.608V43H160.216V32.0909H162.673V33.9446H162.801C163.052 33.3338 163.452 32.8485 164.001 32.4886C164.555 32.1288 165.239 31.9489 166.054 31.9489C166.806 31.9489 167.462 32.1098 168.021 32.4318C168.584 32.7538 169.02 33.2202 169.328 33.831C169.64 34.4418 169.794 35.1828 169.789 36.054V43H167.218V36.4517C167.218 35.7225 167.029 35.152 166.65 34.7401C166.276 34.3281 165.758 34.1222 165.095 34.1222C164.645 34.1222 164.245 34.2216 163.895 34.4205C163.549 34.6146 163.277 34.8963 163.078 35.2656C162.884 35.6349 162.787 36.0824 162.787 36.608ZM177.233 43.2131C176.139 43.2131 175.194 42.9858 174.399 42.5312C173.608 42.072 173 41.4233 172.574 40.5852C172.147 39.7424 171.934 38.7505 171.934 37.6094C171.934 36.4872 172.147 35.5024 172.574 34.6548C173.004 33.8026 173.606 33.1397 174.377 32.6662C175.149 32.188 176.056 31.9489 177.098 31.9489C177.77 31.9489 178.404 32.0578 179.001 32.2756C179.602 32.4886 180.133 32.8201 180.592 33.2699C181.056 33.7197 181.421 34.2926 181.686 34.9886C181.951 35.6799 182.083 36.5038 182.083 37.4602V38.2486H173.142V36.5156H179.619C179.614 36.0232 179.508 35.5852 179.299 35.2017C179.091 34.8134 178.8 34.508 178.426 34.2855C178.056 34.063 177.626 33.9517 177.133 33.9517C176.608 33.9517 176.146 34.0795 175.748 34.3352C175.35 34.5862 175.04 34.9176 174.818 35.3295C174.6 35.7367 174.489 36.1842 174.484 36.6719V38.1847C174.484 38.8191 174.6 39.3636 174.832 39.8182C175.064 40.268 175.388 40.6136 175.805 40.8551C176.222 41.0919 176.709 41.2102 177.268 41.2102C177.642 41.2102 177.981 41.1581 178.284 41.054C178.587 40.9451 178.85 40.7865 179.072 40.5781C179.295 40.3698 179.463 40.1117 179.576 39.804L181.977 40.0739C181.825 40.7083 181.537 41.2623 181.11 41.7358C180.689 42.2045 180.149 42.5691 179.491 42.8295C178.833 43.0852 178.08 43.2131 177.233 43.2131ZM184.259 43V32.0909H186.751V33.9091H186.865C187.064 33.2794 187.405 32.794 187.888 32.4531C188.375 32.1075 188.932 31.9347 189.557 31.9347C189.699 31.9347 189.857 31.9418 190.033 31.956C190.213 31.9654 190.362 31.982 190.48 32.0057V34.3707C190.371 34.3329 190.198 34.2997 189.962 34.2713C189.73 34.2382 189.505 34.2216 189.287 34.2216C188.818 34.2216 188.397 34.3234 188.023 34.527C187.653 34.7259 187.362 35.0028 187.149 35.358C186.936 35.7131 186.83 36.1226 186.83 36.5866V43H184.259Z" fill="#545454"/>
</svg>
