<svg width="536" height="100" viewBox="0 0 536 100" fill="none" xmlns="http://www.w3.org/2000/svg">
<path d="M0.655334 98.6884V6.06061H23.0434V45.2284H24.2645L54.8841 6.06061H81.2523L48.4165 47.3994L81.8403 98.6884H55.0651L31.9986 62.2795L23.0434 73.5866V98.6884H0.655334Z" fill="#22262B"/>
<path d="M114.762 99.8643C110.329 99.8643 106.394 99.1256 102.957 97.6481C99.5497 96.1405 96.8511 93.8791 94.861 90.8639C92.9012 87.8185 91.9212 84.0042 91.9212 79.4211C91.9212 75.5616 92.5996 72.3051 93.9565 69.6517C95.3133 66.9983 97.1828 64.8424 99.5648 63.1841C101.947 61.5257 104.691 60.2744 107.796 59.4301C110.902 58.5557 114.219 57.9677 117.747 57.6662C121.697 57.3044 124.878 56.9275 127.29 56.5355C129.702 56.1134 131.451 55.5254 132.536 54.7716C133.652 53.9876 134.21 52.8871 134.21 51.4699V51.2438C134.21 48.9221 133.411 47.128 131.813 45.8616C130.215 44.5952 128.059 43.962 125.345 43.962C122.42 43.962 120.068 44.5952 118.289 45.8616C116.51 47.128 115.38 48.8768 114.897 51.1081L94.4992 50.3844C95.1023 46.1631 96.6551 42.3941 99.1577 39.0773C101.691 35.7304 105.158 33.1072 109.56 31.2076C113.993 29.2779 119.315 28.313 125.526 28.313C129.958 28.313 134.044 28.8406 137.783 29.896C141.522 30.9212 144.778 32.4288 147.552 34.4188C150.326 36.3787 152.467 38.7909 153.975 41.6554C155.512 44.5198 156.281 47.7913 156.281 51.4699V98.6884H135.476V89.0095H134.933C133.697 91.3614 132.114 93.3514 130.184 94.9797C128.285 96.6079 126.038 97.829 123.445 98.6431C120.882 99.4573 117.988 99.8643 114.762 99.8643ZM121.591 85.3912C123.973 85.3912 126.114 84.9088 128.013 83.9439C129.943 82.979 131.481 81.6523 132.627 79.9638C133.773 78.2451 134.345 76.2551 134.345 73.9937V67.3903C133.712 67.722 132.943 68.0235 132.039 68.2949C131.164 68.5663 130.199 68.8225 129.144 69.0638C128.089 69.305 127.003 69.516 125.888 69.697C124.772 69.8779 123.702 70.0437 122.676 70.1945C120.596 70.5261 118.817 71.0387 117.34 71.7322C115.892 72.4257 114.777 73.3303 113.993 74.4459C113.239 75.5314 112.862 76.828 112.862 78.3356C112.862 80.6272 113.676 82.376 115.304 83.5821C116.963 84.7882 119.058 85.3912 121.591 85.3912Z" fill="#22262B"/>
<path d="M174.899 98.6884V29.2175H196.382V41.8815H197.106C198.372 37.2984 200.438 33.8912 203.302 31.6599C206.167 29.3985 209.499 28.2678 213.298 28.2678C214.323 28.2678 215.378 28.3431 216.464 28.4939C217.549 28.6145 218.559 28.8105 219.494 29.0819V48.3039C218.439 47.9421 217.052 47.6557 215.333 47.4446C213.645 47.2335 212.137 47.128 210.81 47.128C208.187 47.128 205.82 47.716 203.709 48.8919C201.629 50.0377 199.986 51.6508 198.78 53.7313C197.604 55.7817 197.016 58.1939 197.016 60.9679V98.6884H174.899Z" fill="#22262B"/>
<path d="M233.6 98.6884V29.2175H255.084V41.8815H255.808C257.074 37.2984 259.139 33.8912 262.004 31.6599C264.868 29.3985 268.2 28.2678 271.999 28.2678C273.024 28.2678 274.08 28.3431 275.165 28.4939C276.251 28.6145 277.261 28.8105 278.196 29.0819V48.3039C277.14 47.9421 275.753 47.6557 274.035 47.4446C272.346 47.2335 270.838 47.128 269.512 47.128C266.888 47.128 264.522 47.716 262.411 48.8919C260.33 50.0377 258.687 51.6508 257.481 53.7313C256.305 55.7817 255.717 58.1939 255.717 60.9679V98.6884H233.6Z" fill="#22262B"/>
<path d="M292.302 98.6884V29.2175H314.419V98.6884H292.302ZM303.383 21.1217C300.277 21.1217 297.609 20.0965 295.377 18.0461C293.146 15.9656 292.03 13.463 292.03 10.5382C292.03 7.6436 293.146 5.17111 295.377 3.12076C297.609 1.04025 300.277 0 303.383 0C306.519 0 309.187 1.04025 311.388 3.12076C313.619 5.17111 314.735 7.6436 314.735 10.5382C314.735 13.463 313.619 15.9656 311.388 18.0461C309.187 20.0965 306.519 21.1217 303.383 21.1217Z" fill="#22262B"/>
<path d="M366.064 100C358.798 100 352.526 98.5678 347.249 95.7033C342.003 92.8087 337.962 88.6929 335.128 83.3559C332.324 77.9888 330.922 71.6116 330.922 64.2243C330.922 57.0481 332.339 50.7764 335.173 45.4093C338.008 40.0121 342.003 35.8209 347.159 32.8358C352.315 29.8206 358.391 28.313 365.386 28.313C370.331 28.313 374.854 29.0819 378.954 30.6196C383.055 32.1574 386.598 34.4339 389.583 37.4491C392.568 40.4643 394.89 44.1881 396.548 48.6205C398.207 53.0228 399.036 58.0733 399.036 63.772V69.2899H338.656V56.445H378.457C378.427 54.0932 377.869 51.9976 376.783 50.1583C375.698 48.319 374.205 46.8868 372.306 45.8616C370.436 44.8063 368.281 44.2786 365.838 44.2786C363.366 44.2786 361.15 44.8364 359.19 45.9521C357.23 47.0375 355.677 48.5301 354.531 50.4297C353.385 52.2991 352.782 54.4248 352.722 56.8069V69.8779C352.722 72.7122 353.28 75.1998 354.395 77.3406C355.511 79.4512 357.094 81.0945 359.144 82.2705C361.195 83.4464 363.637 84.0344 366.471 84.0344C368.431 84.0344 370.21 83.763 371.808 83.2203C373.406 82.6775 374.778 81.8785 375.924 80.8232C377.07 79.7678 377.929 78.4713 378.502 76.9335L398.81 77.5215C397.965 82.0745 396.111 86.0395 393.247 89.4165C390.412 92.7635 386.688 95.3716 382.075 97.2411C377.462 99.0804 372.125 100 366.064 100Z" fill="#22262B"/>
<path d="M415.426 98.6884V29.2175H436.91V41.8815H437.633C438.9 37.2984 440.965 33.8912 443.83 31.6599C446.694 29.3985 450.026 28.2678 453.825 28.2678C454.85 28.2678 455.906 28.3431 456.991 28.4939C458.076 28.6145 459.087 28.8105 460.021 29.0819V48.3039C458.966 47.9421 457.579 47.6557 455.86 47.4446C454.172 47.2335 452.664 47.128 451.337 47.128C448.714 47.128 446.347 47.716 444.237 48.8919C442.156 50.0377 440.513 51.6508 439.307 53.7313C438.131 55.7817 437.543 58.1939 437.543 60.9679V98.6884H415.426Z" fill="#22262B"/>
<path d="M502.995 100C495.728 100 489.456 98.5678 484.18 95.7033C478.933 92.8087 474.893 88.6929 472.058 83.3559C469.254 77.9888 467.852 71.6116 467.852 64.2243C467.852 57.0481 469.269 50.7764 472.104 45.4093C474.938 40.0121 478.933 35.8209 484.089 32.8358C489.245 29.8206 495.321 28.313 502.316 28.313C507.261 28.313 511.784 29.0819 515.885 30.6196C519.985 32.1574 523.528 34.4339 526.513 37.4491C529.498 40.4643 531.82 44.1881 533.479 48.6205C535.137 53.0228 535.966 58.0733 535.966 63.772V69.2899H475.586V56.445H515.387C515.357 54.0932 514.799 51.9976 513.714 50.1583C512.628 48.319 511.136 46.8868 509.236 45.8616C507.367 44.8063 505.211 44.2786 502.768 44.2786C500.296 44.2786 498.08 44.8364 496.12 45.9521C494.16 47.0375 492.607 48.5301 491.461 50.4297C490.316 52.2991 489.713 54.4248 489.652 56.8069V69.8779C489.652 72.7122 490.21 75.1998 491.326 77.3406C492.441 79.4512 494.024 81.0945 496.075 82.2705C498.125 83.4464 500.567 84.0344 503.402 84.0344C505.362 84.0344 507.141 83.763 508.739 83.2203C510.337 82.6775 511.709 81.8785 512.854 80.8232C514 79.7678 514.859 78.4713 515.432 76.9335L535.74 77.5215C534.896 82.0745 533.041 86.0395 530.177 89.4165C527.343 92.7635 523.619 95.3716 519.005 97.2411C514.392 99.0804 509.055 100 502.995 100Z" fill="#22262B"/>
</svg>
