<svg width="131" height="51" viewBox="0 0 131 51" fill="none" xmlns="http://www.w3.org/2000/svg">
<path d="M73.735 15.3281V26.9769H70.8075V16.2171L68.7843 26.9769H63.8489L61.8103 16.1405V26.9769H58.8828V15.3281H64.4773L66.3166 26.2105L68.1405 15.3281H73.735Z" fill="white"/>
<path d="M77.2846 26.6244V26.6397C76.5949 26.2718 76.0737 25.7507 75.7059 25.0916C75.338 24.4326 75.1541 23.6815 75.1541 22.8385C75.1541 21.9955 75.338 21.2291 75.7059 20.5547C76.0737 19.8803 76.5949 19.3592 77.2846 18.9914C77.9743 18.6235 78.7713 18.4396 79.691 18.4396C80.6106 18.4396 81.4076 18.6235 82.0974 18.9914C82.7871 19.3592 83.3082 19.8803 83.6761 20.5547C84.0439 21.2291 84.2279 21.9802 84.2279 22.8232C84.2279 23.6662 84.0439 24.4172 83.6761 25.0763C83.3082 25.7354 82.7871 26.2565 82.0974 26.6244C81.4076 26.9922 80.6106 27.1761 79.691 27.1761C78.7713 27.1761 77.9743 26.9922 77.2846 26.6244ZM80.9172 24.6625V24.6778C81.1931 24.2333 81.331 23.6202 81.331 22.8385C81.331 22.0415 81.1931 21.4284 80.9172 20.9839C80.6413 20.5394 80.2274 20.3248 79.691 20.3248C79.1545 20.3248 78.7407 20.5394 78.4648 20.9839C78.1889 21.4284 78.051 22.0415 78.051 22.8232C78.051 23.6049 78.1889 24.218 78.4648 24.6625C78.7407 25.107 79.1545 25.3215 79.691 25.3215C80.2274 25.3215 80.6413 25.107 80.9172 24.6625Z" fill="white"/>
<path d="M93.108 19.2672L93.1387 19.2826C93.5678 19.865 93.7824 20.6467 93.7824 21.643V21.6736V27.0075H90.9469V22.348V22.3174C90.9469 21.6583 90.8396 21.1678 90.625 20.846C90.4104 20.5241 90.0885 20.3708 89.6594 20.3708C89.2302 20.3708 88.9083 20.5241 88.6937 20.846C88.4792 21.1678 88.3719 21.6583 88.3719 22.3327V26.9922H85.5363V18.6082H88.3259V20.3555C88.5558 19.7577 88.893 19.2826 89.3375 18.93C89.782 18.5775 90.3491 18.3936 91.0388 18.3936C91.9891 18.3936 92.6788 18.6848 93.108 19.2672Z" fill="white"/>
<path d="M100.689 24.923L100.659 26.9769H99.1719C98.5741 26.9769 98.053 26.8696 97.5932 26.6703C97.1334 26.4711 96.7808 26.1799 96.5203 25.7967C96.2597 25.4135 96.1371 24.9384 96.1371 24.3866V24.3559V20.6467H94.7116V18.5928H96.1371V16.6156H98.9726V18.5928H100.659V20.6467H98.9726V24.0494V24.08C98.9726 24.4019 99.0493 24.6165 99.2025 24.7391C99.3558 24.8617 99.6011 24.923 99.9383 24.923H100.689Z" fill="white"/>
<path d="M108.21 18.8074L108.148 18.8228C108.761 19.0986 109.221 19.4818 109.543 19.9876C109.865 20.4934 110.018 21.0912 110.018 21.7809V21.8116V26.9922H107.229V25.5361C106.983 26.0419 106.646 26.4404 106.202 26.7317C105.757 27.0229 105.19 27.1761 104.5 27.1761C103.949 27.1761 103.443 27.0535 102.983 26.8236C102.523 26.5937 102.171 26.2718 101.91 25.858C101.649 25.4442 101.527 24.969 101.527 24.4326C101.527 23.5589 101.849 22.9305 102.492 22.5473C103.136 22.1641 103.979 21.9189 105.021 21.8116L107.198 21.597V21.5357V21.505C107.198 21.1372 107.091 20.8306 106.876 20.6007C106.661 20.3708 106.355 20.2482 105.956 20.2482C105.604 20.2482 105.313 20.3402 105.098 20.5241C104.883 20.708 104.746 20.9226 104.7 21.1832H101.864C101.941 20.5854 102.155 20.0796 102.523 19.6658C102.891 19.2519 103.366 18.93 103.964 18.7155C104.562 18.5009 105.236 18.3936 105.987 18.3936C106.861 18.3936 107.596 18.5315 108.21 18.8074ZM106.462 25.2756L106.416 25.3062C106.646 25.1223 106.83 24.8771 106.953 24.5552C107.075 24.2333 107.137 23.8808 107.137 23.4823V23.2983L105.987 23.421C105.481 23.4669 105.083 23.5589 104.807 23.7122C104.531 23.8654 104.393 24.1107 104.393 24.4632C104.393 24.8004 104.5 25.061 104.73 25.2602C104.96 25.4595 105.251 25.5515 105.604 25.5515C105.941 25.5515 106.232 25.4595 106.462 25.2756Z" fill="white"/>
<path d="M117.464 18.5928L120.238 18.6388V26.747C120.238 27.59 120.023 28.2644 119.609 28.7855C119.196 29.3066 118.659 29.6745 118.015 29.8891C117.372 30.1037 116.682 30.211 115.962 30.211C115.272 30.211 114.613 30.119 114 29.9197C113.387 29.7205 112.881 29.4139 112.467 29.0001C112.053 28.5863 111.808 28.0651 111.731 27.4367H114.567C114.659 27.7279 114.827 27.9425 115.073 28.0958C115.318 28.2491 115.624 28.3257 115.977 28.3257C116.421 28.3257 116.774 28.2031 117.05 27.9425C117.326 27.682 117.464 27.2988 117.464 26.793V25.0916C117.249 25.6281 116.912 26.0573 116.437 26.3945C115.962 26.7317 115.41 26.9003 114.766 26.9003C114.076 26.9003 113.479 26.7163 112.957 26.3638C112.436 26.0113 112.038 25.5055 111.762 24.8617C111.486 24.218 111.348 23.4823 111.348 22.6546C111.348 21.8269 111.486 21.0912 111.762 20.4475C112.038 19.8037 112.436 19.2979 112.957 18.9454C113.479 18.5928 114.076 18.4089 114.766 18.4089C115.456 18.4089 116.023 18.5928 116.483 18.976C116.942 19.3592 117.264 19.8344 117.464 20.4168V18.5928ZM117.111 24.4172C117.387 24.0034 117.525 23.421 117.525 22.6699C117.525 21.9189 117.387 21.3364 117.111 20.9226C116.835 20.5088 116.421 20.3095 115.885 20.3095C115.348 20.3095 114.935 20.5088 114.659 20.9226C114.383 21.3364 114.245 21.9189 114.245 22.6699C114.245 23.421 114.383 24.0034 114.659 24.4172C114.935 24.8311 115.348 25.0303 115.885 25.0303C116.421 25.0303 116.835 24.8311 117.111 24.4172Z" fill="white"/>
<path d="M130.292 23.6355L124.437 23.6509C124.529 24.218 124.713 24.6318 124.974 24.9077C125.234 25.1836 125.571 25.3215 125.97 25.3215C126.322 25.3215 126.598 25.2602 126.797 25.1223C126.997 24.9843 127.165 24.7698 127.303 24.4785H130.139C129.848 25.3522 129.342 26.0266 128.606 26.4864C127.87 26.9462 126.981 27.1761 125.924 27.1761C125.05 27.1761 124.284 26.9922 123.625 26.6244C122.966 26.2565 122.445 25.7354 122.077 25.061C121.709 24.3866 121.525 23.6202 121.525 22.7619C121.525 21.9035 121.709 21.1372 122.077 20.4781C122.445 19.819 122.966 19.2979 123.64 18.93C124.314 18.5622 125.081 18.3783 125.939 18.3783C126.843 18.3783 127.625 18.5622 128.284 18.9454C128.943 19.3286 129.449 19.865 129.802 20.5547C130.154 21.2445 130.338 22.0262 130.338 22.9152C130.338 23.1297 130.323 23.375 130.292 23.6355ZM124.989 20.6774L124.958 20.708C124.698 20.9533 124.514 21.3364 124.422 21.8729H127.411C127.349 21.3824 127.181 20.9992 126.92 20.7233C126.66 20.4475 126.338 20.3095 125.954 20.3095C125.571 20.3095 125.249 20.4321 124.989 20.6774Z" fill="white"/>
<path d="M14.4353 22.2221V24.5672H19.9378V26.9736H11.5078V15.3249H19.7999V17.7312H14.4353V19.8158H19.6926V22.2221H14.4353Z" fill="#50A954"/>
<path d="M24.0308 26.4525L23.9849 26.4985C23.0959 26.008 22.3908 25.3029 21.885 24.3986C21.3792 23.4943 21.1186 22.4214 21.1186 21.1952C21.1186 19.969 21.3792 18.8961 21.885 17.9918C22.3908 17.0875 23.0959 16.3824 23.9849 15.892C24.8738 15.4015 25.8701 15.1562 26.9737 15.1562C27.924 15.1562 28.7976 15.3249 29.5793 15.6621C30.361 15.9993 31.0201 16.4897 31.5566 17.1335C32.093 17.7772 32.4609 18.5589 32.6601 19.4632H29.61C29.1502 18.1144 28.2765 17.44 26.9737 17.44C26.4066 17.44 25.9161 17.5933 25.4869 17.8998C25.0578 18.2064 24.7206 18.6356 24.4907 19.2027C24.2607 19.7698 24.1381 20.4289 24.1381 21.1952C24.1381 21.9616 24.2607 22.6207 24.506 23.1878C24.7512 23.7549 25.0884 24.184 25.5176 24.4906C25.9468 24.7971 26.4526 24.9504 27.0197 24.9504C27.6787 24.9504 28.2459 24.7665 28.7057 24.414C29.1655 24.0614 29.5027 23.5556 29.702 22.8966H32.7521C32.3996 24.3526 31.7252 25.4256 30.7136 26.1306C29.702 26.8357 28.4758 27.1882 27.035 27.1882C25.9161 27.1882 24.9198 26.943 24.0308 26.4525Z" fill="white"/>
<path d="M51.7527 21.0248H47.633C47.1321 21.0248 46.6732 20.618 46.5868 20.1191C44.6535 8.98729 35.0282 0.5 23.4734 0.5C10.5301 0.5 0 11.147 0 24.2342C0 37.3215 7.40019 50.5 20.3435 50.5C21.5957 50.5 47.2596 34.0445 47.2596 32.7785C47.2596 32.7785 43.2198 33.0949 41.9676 33.0949C15.0229 42.9051 4.53452 34.7934 4.53452 24.2342C4.53452 13.6752 13.0301 5.08482 23.4731 5.08482C32.5207 5.08482 40.1021 11.5346 41.9676 20.1245C42.0749 20.6191 41.7346 21.0247 41.234 21.0247H37.6059C37.105 21.0247 36.956 21.3426 37.2729 21.7348L44.1055 30.1875C44.4225 30.5796 44.9361 30.5796 45.2533 30.1875L52.0859 21.7348C52.4028 21.3427 52.2535 21.0248 51.7527 21.0248Z" fill="#50A954"/>
</svg>
