<svg width="536" height="100" viewBox="0 0 536 100" fill="none" xmlns="http://www.w3.org/2000/svg">
<path d="M0 98.6884V6.06061H22.388V45.2284H23.6092L54.2288 6.06061H80.5969L47.7612 47.3994L81.1849 98.6884H54.4097L31.3433 62.2795L22.388 73.5866V98.6884H0Z" fill="#50A954"/>
<path d="M114.106 99.8643C109.674 99.8643 105.739 99.1256 102.302 97.6481C98.8944 96.1405 96.1958 93.8791 94.2057 90.8639C92.2458 87.8185 91.2659 84.0042 91.2659 79.4211C91.2659 75.5616 91.9443 72.3051 93.3011 69.6517C94.658 66.9983 96.5274 64.8424 98.9095 63.1841C101.291 61.5257 104.035 60.2744 107.141 59.4301C110.247 58.5557 113.563 57.9677 117.091 57.6662C121.041 57.3044 124.222 56.9275 126.634 56.5355C129.047 56.1134 130.795 55.5254 131.881 54.7716C132.997 53.9876 133.554 52.8871 133.554 51.4699V51.2438C133.554 48.9221 132.755 47.128 131.157 45.8616C129.559 44.5952 127.403 43.962 124.69 43.962C121.765 43.962 119.413 44.5952 117.634 45.8616C115.855 47.128 114.724 48.8768 114.242 51.1081L93.8439 50.3844C94.4469 46.1631 95.9998 42.3941 98.5024 39.0773C101.035 35.7304 104.503 33.1072 108.905 31.2076C113.337 29.2779 118.659 28.313 124.871 28.313C129.303 28.313 133.389 28.8406 137.127 29.896C140.866 30.9212 144.123 32.4288 146.897 34.4188C149.671 36.3787 151.812 38.7909 153.319 41.6554C154.857 44.5198 155.626 47.7913 155.626 51.4699V98.6884H134.821V89.0095H134.278C133.042 91.3614 131.459 93.3514 129.529 94.9797C127.629 96.6079 125.383 97.829 122.79 98.6431C120.227 99.4573 117.332 99.8643 114.106 99.8643ZM120.936 85.3912C123.318 85.3912 125.459 84.9088 127.358 83.9439C129.288 82.979 130.826 81.6523 131.971 79.9638C133.117 78.2451 133.69 76.2551 133.69 73.9937V67.3903C133.057 67.722 132.288 68.0235 131.383 68.2949C130.509 68.5663 129.544 68.8225 128.489 69.0638C127.433 69.305 126.348 69.516 125.232 69.697C124.117 69.8779 123.046 70.0437 122.021 70.1945C119.941 70.5261 118.162 71.0387 116.684 71.7322C115.237 72.4257 114.121 73.3303 113.337 74.4459C112.583 75.5314 112.207 76.828 112.207 78.3356C112.207 80.6272 113.021 82.376 114.649 83.5821C116.307 84.7882 118.403 85.3912 120.936 85.3912Z" fill="#50A954"/>
<path d="M174.244 98.6884V29.2175H195.727V41.8815H196.451C197.717 37.2984 199.783 33.8912 202.647 31.6599C205.512 29.3985 208.843 28.2678 212.643 28.2678C213.668 28.2678 214.723 28.3431 215.808 28.4939C216.894 28.6145 217.904 28.8105 218.839 29.0819V48.3039C217.783 47.9421 216.396 47.6557 214.678 47.4446C212.989 47.2335 211.482 47.128 210.155 47.128C207.532 47.128 205.165 47.716 203.054 48.8919C200.974 50.0377 199.33 51.6508 198.124 53.7313C196.948 55.7817 196.36 58.1939 196.36 60.9679V98.6884H174.244Z" fill="#50A954"/>
<path d="M232.945 98.6884V29.2175H254.429V41.8815H255.152C256.419 37.2984 258.484 33.8912 261.348 31.6599C264.213 29.3985 267.545 28.2678 271.344 28.2678C272.369 28.2678 273.424 28.3431 274.51 28.4939C275.595 28.6145 276.605 28.8105 277.54 29.0819V48.3039C276.485 47.9421 275.098 47.6557 273.379 47.4446C271.691 47.2335 270.183 47.128 268.856 47.128C266.233 47.128 263.866 47.716 261.756 48.8919C259.675 50.0377 258.032 51.6508 256.826 53.7313C255.65 55.7817 255.062 58.1939 255.062 60.9679V98.6884H232.945Z" fill="#50A954"/>
<path d="M291.647 98.6884V29.2175H313.763V98.6884H291.647ZM302.727 21.1217C299.622 21.1217 296.953 20.0965 294.722 18.0461C292.491 15.9656 291.375 13.463 291.375 10.5382C291.375 7.6436 292.491 5.17111 294.722 3.12076C296.953 1.04025 299.622 0 302.727 0C305.863 0 308.532 1.04025 310.733 3.12076C312.964 5.17111 314.08 7.6436 314.08 10.5382C314.08 13.463 312.964 15.9656 310.733 18.0461C308.532 20.0965 305.863 21.1217 302.727 21.1217Z" fill="#50A954"/>
<path d="M365.409 100C358.142 100 351.871 98.5678 346.594 95.7033C341.348 92.8087 337.307 88.6929 334.473 83.3559C331.669 77.9888 330.267 71.6116 330.267 64.2243C330.267 57.0481 331.684 50.7764 334.518 45.4093C337.352 40.0121 341.348 35.8209 346.504 32.8358C351.66 29.8206 357.735 28.313 364.731 28.313C369.676 28.313 374.198 29.0819 378.299 30.6196C382.4 32.1574 385.943 34.4339 388.928 37.4491C391.913 40.4643 394.235 44.1881 395.893 48.6205C397.551 53.0228 398.38 58.0733 398.38 63.772V69.2899H338.001V56.445H377.802C377.771 54.0932 377.214 51.9976 376.128 50.1583C375.043 48.319 373.55 46.8868 371.651 45.8616C369.781 44.8063 367.625 44.2786 365.183 44.2786C362.71 44.2786 360.494 44.8364 358.534 45.9521C356.574 47.0375 355.022 48.5301 353.876 50.4297C352.73 52.2991 352.127 54.4248 352.067 56.8069V69.8779C352.067 72.7122 352.624 75.1998 353.74 77.3406C354.856 79.4512 356.439 81.0945 358.489 82.2705C360.539 83.4464 362.982 84.0344 365.816 84.0344C367.776 84.0344 369.555 83.763 371.153 83.2203C372.751 82.6775 374.123 81.8785 375.269 80.8232C376.415 79.7678 377.274 78.4713 377.847 76.9335L398.154 77.5215C397.31 82.0745 395.456 86.0395 392.591 89.4165C389.757 92.7635 386.033 95.3716 381.42 97.2411C376.807 99.0804 371.47 100 365.409 100Z" fill="#50A954"/>
<path d="M414.771 98.6884V29.2175H436.254V41.8815H436.978C438.244 37.2984 440.31 33.8912 443.174 31.6599C446.039 29.3985 449.37 28.2678 453.17 28.2678C454.195 28.2678 455.25 28.3431 456.336 28.4939C457.421 28.6145 458.431 28.8105 459.366 29.0819V48.3039C458.311 47.9421 456.924 47.6557 455.205 47.4446C453.516 47.2335 452.009 47.128 450.682 47.128C448.059 47.128 445.692 47.716 443.581 48.8919C441.501 50.0377 439.857 51.6508 438.651 53.7313C437.475 55.7817 436.887 58.1939 436.887 60.9679V98.6884H414.771Z" fill="#50A954"/>
<path d="M502.339 100C495.073 100 488.801 98.5678 483.524 95.7033C478.278 92.8087 474.237 88.6929 471.403 83.3559C468.599 77.9888 467.197 71.6116 467.197 64.2243C467.197 57.0481 468.614 50.7764 471.448 45.4093C474.283 40.0121 478.278 35.8209 483.434 32.8358C488.59 29.8206 494.665 28.313 501.661 28.313C506.606 28.313 511.129 29.0819 515.229 30.6196C519.33 32.1574 522.873 34.4339 525.858 37.4491C528.843 40.4643 531.165 44.1881 532.823 48.6205C534.482 53.0228 535.311 58.0733 535.311 63.772V69.2899H474.931V56.445H514.732C514.702 54.0932 514.144 51.9976 513.058 50.1583C511.973 48.319 510.48 46.8868 508.581 45.8616C506.711 44.8063 504.555 44.2786 502.113 44.2786C499.641 44.2786 497.424 44.8364 495.465 45.9521C493.505 47.0375 491.952 48.5301 490.806 50.4297C489.66 52.2991 489.057 54.4248 488.997 56.8069V69.8779C488.997 72.7122 489.555 75.1998 490.67 77.3406C491.786 79.4512 493.369 81.0945 495.419 82.2705C497.47 83.4464 499.912 84.0344 502.746 84.0344C504.706 84.0344 506.485 83.763 508.083 83.2203C509.681 82.6775 511.053 81.8785 512.199 80.8232C513.345 79.7678 514.204 78.4713 514.777 76.9335L535.085 77.5215C534.24 82.0745 532.386 86.0395 529.521 89.4165C526.687 92.7635 522.963 95.3716 518.35 97.2411C513.737 99.0804 508.4 100 502.339 100Z" fill="#50A954"/>
</svg>
