<svg width="203" height="72" viewBox="0 0 203 72" fill="none" xmlns="http://www.w3.org/2000/svg">
<path d="M105.836 21.28V38H101.634V22.556L98.73 38H91.646L88.72 22.446V38H84.518V21.28H92.548L95.188 36.9L97.806 21.28H105.836ZM110.931 37.494V37.516C109.941 36.988 109.193 36.24 108.665 35.294C108.137 34.348 107.873 33.27 107.873 32.06C107.873 30.85 108.137 29.75 108.665 28.782C109.193 27.814 109.941 27.066 110.931 26.538C111.921 26.01 113.065 25.746 114.385 25.746C115.705 25.746 116.849 26.01 117.839 26.538C118.829 27.066 119.577 27.814 120.105 28.782C120.633 29.75 120.897 30.828 120.897 32.038C120.897 33.248 120.633 34.326 120.105 35.272C119.577 36.218 118.829 36.966 117.839 37.494C116.849 38.022 115.705 38.286 114.385 38.286C113.065 38.286 111.921 38.022 110.931 37.494ZM116.145 34.678V34.7C116.541 34.062 116.739 33.182 116.739 32.06C116.739 30.916 116.541 30.036 116.145 29.398C115.749 28.76 115.155 28.452 114.385 28.452C113.615 28.452 113.021 28.76 112.625 29.398C112.229 30.036 112.031 30.916 112.031 32.038C112.031 33.16 112.229 34.04 112.625 34.678C113.021 35.316 113.615 35.624 114.385 35.624C115.155 35.624 115.749 35.316 116.145 34.678ZM133.643 26.934L133.687 26.956C134.303 27.792 134.611 28.914 134.611 30.344V30.388V38.044H130.541V31.356V31.312C130.541 30.366 130.387 29.662 130.079 29.2C129.771 28.738 129.309 28.518 128.693 28.518C128.077 28.518 127.615 28.738 127.307 29.2C126.999 29.662 126.845 30.366 126.845 31.334V38.022H122.775V25.988H126.779V28.496C127.109 27.638 127.593 26.956 128.231 26.45C128.869 25.944 129.683 25.68 130.673 25.68C132.037 25.68 133.027 26.098 133.643 26.934ZM144.525 35.052L144.481 38H142.347C141.489 38 140.741 37.846 140.081 37.56C139.421 37.274 138.915 36.856 138.541 36.306C138.167 35.756 137.991 35.074 137.991 34.282V34.238V28.914H135.945V25.966H137.991V23.128H142.061V25.966H144.481V28.914H142.061V33.798V33.842C142.061 34.304 142.171 34.612 142.391 34.788C142.611 34.964 142.963 35.052 143.447 35.052H144.525ZM155.319 26.274L155.231 26.296C156.111 26.692 156.771 27.242 157.233 27.968C157.695 28.694 157.915 29.552 157.915 30.542V30.586V38.022H153.911V35.932C153.559 36.658 153.075 37.23 152.437 37.648C151.799 38.066 150.985 38.286 149.995 38.286C149.203 38.286 148.477 38.11 147.817 37.78C147.157 37.45 146.651 36.988 146.277 36.394C145.903 35.8 145.727 35.118 145.727 34.348C145.727 33.094 146.189 32.192 147.113 31.642C148.037 31.092 149.247 30.74 150.743 30.586L153.867 30.278V30.19V30.146C153.867 29.618 153.713 29.178 153.405 28.848C153.097 28.518 152.657 28.342 152.085 28.342C151.579 28.342 151.161 28.474 150.853 28.738C150.545 29.002 150.347 29.31 150.281 29.684H146.211C146.321 28.826 146.629 28.1 147.157 27.506C147.685 26.912 148.367 26.45 149.225 26.142C150.083 25.834 151.051 25.68 152.129 25.68C153.383 25.68 154.439 25.878 155.319 26.274ZM152.811 35.558L152.745 35.602C153.075 35.338 153.339 34.986 153.515 34.524C153.691 34.062 153.779 33.556 153.779 32.984V32.72L152.129 32.896C151.403 32.962 150.831 33.094 150.435 33.314C150.039 33.534 149.841 33.886 149.841 34.392C149.841 34.876 149.995 35.25 150.325 35.536C150.655 35.822 151.073 35.954 151.579 35.954C152.063 35.954 152.481 35.822 152.811 35.558ZM168.602 25.966L172.584 26.032V37.67C172.584 38.88 172.276 39.848 171.682 40.596C171.088 41.344 170.318 41.872 169.394 42.18C168.47 42.488 167.48 42.642 166.446 42.642C165.456 42.642 164.51 42.51 163.63 42.224C162.75 41.938 162.024 41.498 161.43 40.904C160.836 40.31 160.484 39.562 160.374 38.66H164.444C164.576 39.078 164.818 39.386 165.17 39.606C165.522 39.826 165.962 39.936 166.468 39.936C167.106 39.936 167.612 39.76 168.008 39.386C168.404 39.012 168.602 38.462 168.602 37.736V35.294C168.294 36.064 167.81 36.68 167.128 37.164C166.446 37.648 165.654 37.89 164.73 37.89C163.74 37.89 162.882 37.626 162.134 37.12C161.386 36.614 160.814 35.888 160.418 34.964C160.022 34.04 159.824 32.984 159.824 31.796C159.824 30.608 160.022 29.552 160.418 28.628C160.814 27.704 161.386 26.978 162.134 26.472C162.882 25.966 163.74 25.702 164.73 25.702C165.72 25.702 166.534 25.966 167.194 26.516C167.854 27.066 168.316 27.748 168.602 28.584V25.966ZM168.096 34.326C168.492 33.732 168.69 32.896 168.69 31.818C168.69 30.74 168.492 29.904 168.096 29.31C167.7 28.716 167.106 28.43 166.336 28.43C165.566 28.43 164.972 28.716 164.576 29.31C164.18 29.904 163.982 30.74 163.982 31.818C163.982 32.896 164.18 33.732 164.576 34.326C164.972 34.92 165.566 35.206 166.336 35.206C167.106 35.206 167.7 34.92 168.096 34.326ZM187.015 33.204L178.611 33.226C178.743 34.04 179.007 34.634 179.381 35.03C179.755 35.426 180.239 35.624 180.811 35.624C181.317 35.624 181.713 35.536 181.999 35.338C182.285 35.14 182.527 34.832 182.725 34.414H186.795C186.377 35.668 185.651 36.636 184.595 37.296C183.539 37.956 182.263 38.286 180.745 38.286C179.491 38.286 178.391 38.022 177.445 37.494C176.499 36.966 175.751 36.218 175.223 35.25C174.695 34.282 174.431 33.182 174.431 31.95C174.431 30.718 174.695 29.618 175.223 28.672C175.751 27.726 176.499 26.978 177.467 26.45C178.435 25.922 179.535 25.658 180.767 25.658C182.065 25.658 183.187 25.922 184.133 26.472C185.079 27.022 185.805 27.792 186.311 28.782C186.817 29.772 187.081 30.894 187.081 32.17C187.081 32.478 187.059 32.83 187.015 33.204ZM179.403 28.958L179.359 29.002C178.985 29.354 178.721 29.904 178.589 30.674H182.879C182.791 29.97 182.549 29.42 182.175 29.024C181.801 28.628 181.339 28.43 180.789 28.43C180.239 28.43 179.777 28.606 179.403 28.958Z" fill="white"/>
<path d="M20.72 31.18V34.546H28.618V38H16.518V21.28H28.42V24.734H20.72V27.726H28.266V31.18H20.72Z" fill="#50A954"/>
<path d="M34.4929 37.252L34.4269 37.318C33.1509 36.614 32.1389 35.602 31.4129 34.304C30.6869 33.006 30.3129 31.466 30.3129 29.706C30.3129 27.946 30.6869 26.406 31.4129 25.108C32.1389 23.81 33.1509 22.798 34.4269 22.094C35.7029 21.39 37.1329 21.038 38.7169 21.038C40.0809 21.038 41.3349 21.28 42.4569 21.764C43.5789 22.248 44.5249 22.952 45.2949 23.876C46.0649 24.8 46.5929 25.922 46.8789 27.22H42.5009C41.8409 25.284 40.5869 24.316 38.7169 24.316C37.9029 24.316 37.1989 24.536 36.5829 24.976C35.9669 25.416 35.4829 26.032 35.1529 26.846C34.8229 27.66 34.6469 28.606 34.6469 29.706C34.6469 30.806 34.8229 31.752 35.1749 32.566C35.5269 33.38 36.0109 33.996 36.6269 34.436C37.2429 34.876 37.9689 35.096 38.7829 35.096C39.7289 35.096 40.5429 34.832 41.2029 34.326C41.8629 33.82 42.3469 33.094 42.6329 32.148H47.0109C46.5049 34.238 45.5369 35.778 44.0849 36.79C42.6329 37.802 40.8729 38.308 38.8049 38.308C37.1989 38.308 35.7689 37.956 34.4929 37.252Z" fill="white"/>
<path d="M74.283 29.4602H68.3698C67.6509 29.4602 66.9922 28.8762 66.8681 28.1602C64.0931 12.1822 50.2776 0 33.6924 0C15.1143 0 0 15.2821 0 34.0667C0 52.8515 10.6218 71.7672 29.2 71.7672C30.9973 71.7672 67.8338 48.1479 67.8338 46.3308C67.8338 46.3308 62.0353 46.785 60.238 46.785C21.5631 60.8659 6.5086 49.2228 6.5086 34.0667C6.5086 18.9109 18.7027 6.58079 33.692 6.58079C46.6784 6.58079 57.5604 15.8384 60.238 28.168C60.392 28.8778 59.9035 29.4601 59.185 29.4601H53.9774C53.2585 29.4601 53.0447 29.9163 53.4994 30.4792L63.3066 42.6118C63.7616 43.1747 64.4988 43.1747 64.9541 42.6118L74.7613 30.4792C75.216 29.9164 75.0018 29.4602 74.283 29.4602Z" fill="#50A954"/>
</svg>
